<svg xmlns="http://www.w3.org/2000/svg" width="833.333" height="833.333" preserveAspectRatio="xMidYMid meet" version="1.0" viewBox="0 0 625 625"><metadata>Created by potrace 1.11, written by Peter Selinger 2001-2013</metadata><g fill="#000" stroke="none"><path d="M2918 6245 c-2 -2 -39 -6 -83 -9 -70 -5 -203 -24 -300 -41 -161 -29 -442 -115 -625 -190 -114 -47 -318 -153 -426 -221 -122 -76 -121 -76 -187 23 -50 76 -69 123 -96 233 -13 53 -19 66 -21 45 -7 -120 -75 -263 -169 -355 -70 -70 -141 -110 -249 -141 -70 -20 -66 -19 -88 -19 -35 0 -1 -18 46 -24 78 -10 270 -103 270 -131 0 -5 -26 -35 -58 -65 -382 -370 -689 -894 -824 -1410 -27 -103 -36 -141 -53 -230 -11 -57 -35 -221 -42 -290 -16 -154 -9 -540 12 -699 77 -575 318 -1133 679 -1571 237 -288 495 -510 816 -705 299 -181 705 -336 1020 -390 19 -3 42 -8 50 -10 8 -2 42 -7 75 -11 33 -3 62 -8 65 -9 17 -10 215 -20 395 -20 194 0 303 6 402 21 97 14 277 46 283 49 4 2 20 6 36 9 55 10 239 65 339 101 744 268 1368 820 1724 1524 38 75 79 161 91 191 12 30 28 69 35 85 45 103 119 353 145 480 5 28 12 61 15 75 3 14 8 41 11 60 2 19 7 46 9 60 35 197 41 745 10 860 -3 8 -7 38 -10 65 -3 28 -7 61 -10 75 -3 14 -8 41 -11 60 -23 140 -123 469 -191 624 -27 63 -118 250 -134 276 -5 8 -33 57 -63 107 -429 730 -1163 1261 -1996 1447 -130 28 -209 42 -378 62 -44 6 -509 14 -514 9z" transform="translate(0.000000,625.000000) scale(0.100000,-0.100000)"/></g></svg>