<?xml version="1.0" standalone="no"?><!DOCTYPE svg PUBLIC "-//W3C//DTD SVG 1.1//EN" "http://www.w3.org/Graphics/SVG/1.1/DTD/svg11.dtd"><svg t="1524237636647" class="icon" style="" viewBox="0 0 1024 1024" version="1.1" xmlns="http://www.w3.org/2000/svg" p-id="1809" xmlns:xlink="http://www.w3.org/1999/xlink" width="200" height="200"><defs><style type="text/css"></style></defs><path d="M740.1 291.7c33 0 60-27 60-60s-27-60-60-60-60 27-60 60 26.9 60 60 60z" fill="#ffffff" p-id="1810"></path><path d="M737 227.1m-60 0a60 60 0 1 0 120 0 60 60 0 1 0-120 0Z" fill="#ffffff" p-id="1811"></path><path d="M733.8 222.6m-60 0a60 60 0 1 0 120 0 60 60 0 1 0-120 0Z" fill="#ffffff" p-id="1812"></path><path d="M730.4 218.2m-60 0a60 60 0 1 0 120 0 60 60 0 1 0-120 0Z" fill="#ffffff" p-id="1813"></path><path d="M727 213.9m-60 0a60 60 0 1 0 120 0 60 60 0 1 0-120 0Z" fill="#ffffff" p-id="1814"></path><path d="M723.4 209.7m-60 0a60 60 0 1 0 120 0 60 60 0 1 0-120 0Z" fill="#ffffff" p-id="1815"></path><path d="M719.7 205.6m-60 0a60 60 0 1 0 120 0 60 60 0 1 0-120 0Z" fill="#ffffff" p-id="1816"></path><path d="M715.9 201.6m-60 0a60 60 0 1 0 120 0 60 60 0 1 0-120 0Z" fill="#ffffff" p-id="1817"></path><path d="M712 197.7m-60 0a60 60 0 1 0 120 0 60 60 0 1 0-120 0Z" fill="#ffffff" p-id="1818"></path><path d="M708 193.9m-60 0a60 60 0 1 0 120 0 60 60 0 1 0-120 0Z" fill="#ffffff" p-id="1819"></path><path d="M703.9 190.2m-60 0a60 60 0 1 0 120 0 60 60 0 1 0-120 0Z" fill="#ffffff" p-id="1820"></path><path d="M699.8 186.6m-60 0a60 60 0 1 0 120 0 60 60 0 1 0-120 0Z" fill="#ffffff" p-id="1821"></path><path d="M695.5 183.1m-60 0a60 60 0 1 0 120 0 60 60 0 1 0-120 0Z" fill="#ffffff" p-id="1822"></path><path d="M691.2 179.7m-60 0a60 60 0 1 0 120 0 60 60 0 1 0-120 0Z" fill="#ffffff" p-id="1823"></path><path d="M686.7 176.4m-60 0a60 60 0 1 0 120 0 60 60 0 1 0-120 0Z" fill="#ffffff" p-id="1824"></path><path d="M682.3 173.2m-60 0a60 60 0 1 0 120 0 60 60 0 1 0-120 0Z" fill="#ffffff" p-id="1825"></path><path d="M677.7 170.1m-60 0a60 60 0 1 0 120 0 60 60 0 1 0-120 0Z" fill="#ffffff" p-id="1826"></path><path d="M673.1 167m-60 0a60 60 0 1 0 120 0 60 60 0 1 0-120 0Z" fill="#ffffff" p-id="1827"></path><path d="M668.4 164.1m-60 0a60 60 0 1 0 120 0 60 60 0 1 0-120 0Z" fill="#ffffff" p-id="1828"></path><path d="M663.6 161.3m-60 0a60 60 0 1 0 120 0 60 60 0 1 0-120 0Z" fill="#ffffff" p-id="1829"></path><path d="M658.8 158.6m-60 0a60 60 0 1 0 120 0 60 60 0 1 0-120 0Z" fill="#ffffff" p-id="1830"></path><path d="M653.9 156m-60 0a60 60 0 1 0 120 0 60 60 0 1 0-120 0Z" fill="#ffffff" p-id="1831"></path><path d="M649 153.5m-60 0a60 60 0 1 0 120 0 60 60 0 1 0-120 0Z" fill="#ffffff" p-id="1832"></path><path d="M644 151.1m-60 0a60 60 0 1 0 120 0 60 60 0 1 0-120 0Z" fill="#ffffff" p-id="1833"></path><path d="M639 148.8m-60 0a60 60 0 1 0 120 0 60 60 0 1 0-120 0Z" fill="#ffffff" p-id="1834"></path><path d="M634 146.6m-60 0a60 60 0 1 0 120 0 60 60 0 1 0-120 0Z" fill="#ffffff" p-id="1835"></path><path d="M628.9 144.5m-60 0a60 60 0 1 0 120 0 60 60 0 1 0-120 0Z" fill="#ffffff" p-id="1836"></path><path d="M623.7 142.5m-60 0a60 60 0 1 0 120 0 60 60 0 1 0-120 0Z" fill="#ffffff" p-id="1837"></path><path d="M618.5 140.6m-60 0a60 60 0 1 0 120 0 60 60 0 1 0-120 0Z" fill="#ffffff" p-id="1838"></path><path d="M613.3 138.8m-60 0a60 60 0 1 0 120 0 60 60 0 1 0-120 0Z" fill="#ffffff" p-id="1839"></path><path d="M608.1 137.1m-60 0a60 60 0 1 0 120 0 60 60 0 1 0-120 0Z" fill="#ffffff" p-id="1840"></path><path d="M602.8 135.5m-60 0a60 60 0 1 0 120 0 60 60 0 1 0-120 0Z" fill="#ffffff" p-id="1841"></path><path d="M597.5 134m-60 0a60 60 0 1 0 120 0 60 60 0 1 0-120 0Z" fill="#ffffff" p-id="1842"></path><path d="M592.2 132.6m-60 0a60 60 0 1 0 120 0 60 60 0 1 0-120 0Z" fill="#ffffff" p-id="1843"></path><path d="M586.8 131.3m-60 0a60 60 0 1 0 120 0 60 60 0 1 0-120 0Z" fill="#ffffff" p-id="1844"></path><path d="M581.4 130.1m-60 0a60 60 0 1 0 120 0 60 60 0 1 0-120 0Z" fill="#ffffff" p-id="1845"></path><path d="M576 129m-60 0a60 60 0 1 0 120 0 60 60 0 1 0-120 0Z" fill="#ffffff" p-id="1846"></path><path d="M570.6 127.9m-60 0a60 60 0 1 0 120 0 60 60 0 1 0-120 0Z" fill="#ffffff" p-id="1847"></path><path d="M565.1 127m-60 0a60 60 0 1 0 120 0 60 60 0 1 0-120 0Z" fill="#ffffff" p-id="1848"></path><path d="M559.7 126.2m-60 0a60 60 0 1 0 120 0 60 60 0 1 0-120 0Z" fill="#ffffff" p-id="1849"></path><path d="M554.2 125.5m-60 0a60 60 0 1 0 120 0 60 60 0 1 0-120 0Z" fill="#ffffff" p-id="1850"></path><path d="M548.7 124.8m-60 0a60 60 0 1 0 120 0 60 60 0 1 0-120 0Z" fill="#ffffff" p-id="1851"></path><path d="M543.2 124.3m-60 0a60 60 0 1 0 120 0 60 60 0 1 0-120 0Z" fill="#ffffff" p-id="1852"></path><path d="M537.7 123.9m-60 0a60 60 0 1 0 120 0 60 60 0 1 0-120 0Z" fill="#ffffff" p-id="1853"></path><path d="M532.2 123.5m-60 0a60 60 0 1 0 120 0 60 60 0 1 0-120 0Z" fill="#ffffff" p-id="1854"></path><path d="M526.7 123.4m-60 0a60 60 0 1 0 120 0 60 60 0 1 0-120 0Z" fill="#ffffff" p-id="1855"></path><path d="M521.2 123.2m-60 0a60 60 0 1 0 120 0 60 60 0 1 0-120 0Z" fill="#ffffff" p-id="1856"></path><path d="M515.7 123.2m-60 0a60 60 0 1 0 120 0 60 60 0 1 0-120 0Z" fill="#ffffff" p-id="1857"></path><path d="M510.2 123.2m-60 0a60 60 0 1 0 120 0 60 60 0 1 0-120 0Z" fill="#ffffff" p-id="1858"></path><path d="M504.6 123.3m-60 0a60 60 0 1 0 120 0 60 60 0 1 0-120 0Z" fill="#ffffff" p-id="1859"></path><path d="M499.1 123.6m-60 0a60 60 0 1 0 120 0 60 60 0 1 0-120 0Z" fill="#ffffff" p-id="1860"></path><path d="M493.6 123.9m-60 0a60 60 0 1 0 120 0 60 60 0 1 0-120 0Z" fill="#ffffff" p-id="1861"></path><path d="M488.1 124.4m-60 0a60 60 0 1 0 120 0 60 60 0 1 0-120 0Z" fill="#ffffff" p-id="1862"></path><path d="M482.6 124.9m-60 0a60 60 0 1 0 120 0 60 60 0 1 0-120 0Z" fill="#ffffff" p-id="1863"></path><path d="M477.2 125.6m-60 0a60 60 0 1 0 120 0 60 60 0 1 0-120 0Z" fill="#ffffff" p-id="1864"></path><path d="M471.7 126.3m-60 0a60 60 0 1 0 120 0 60 60 0 1 0-120 0Z" fill="#ffffff" p-id="1865"></path><path d="M466.2 127.2m-60 0a60 60 0 1 0 120 0 60 60 0 1 0-120 0Z" fill="#ffffff" p-id="1866"></path><path d="M460.8 128.1m-60 0a60 60 0 1 0 120 0 60 60 0 1 0-120 0Z" fill="#ffffff" p-id="1867"></path><path d="M455.4 129.1m-60 0a60 60 0 1 0 120 0 60 60 0 1 0-120 0Z" fill="#ffffff" p-id="1868"></path><path d="M450 130.3m-60 0a60 60 0 1 0 120 0 60 60 0 1 0-120 0Z" fill="#ffffff" p-id="1869"></path><path d="M444.6 131.5m-60 0a60 60 0 1 0 120 0 60 60 0 1 0-120 0Z" fill="#ffffff" p-id="1870"></path><path d="M439.3 132.9m-60 0a60 60 0 1 0 120 0 60 60 0 1 0-120 0Z" fill="#ffffff" p-id="1871"></path><path d="M433.9 134.3m-60 0a60 60 0 1 0 120 0 60 60 0 1 0-120 0Z" fill="#ffffff" p-id="1872"></path><path d="M428.6 135.9m-60 0a60 60 0 1 0 120 0 60 60 0 1 0-120 0Z" fill="#ffffff" p-id="1873"></path><path d="M423.4 137.6m-60 0a60 60 0 1 0 120 0 60 60 0 1 0-120 0Z" fill="#ffffff" p-id="1874"></path><path d="M418.2 139.4m-60 0a60 60 0 1 0 120 0 60 60 0 1 0-120 0Z" fill="#ffffff" p-id="1875"></path><path d="M412.9 141.2m-60 0a60 60 0 1 0 120 0 60 60 0 1 0-120 0Z" fill="#ffffff" p-id="1876"></path><path d="M407.8 143.2m-60 0a60 60 0 1 0 120 0 60 60 0 1 0-120 0Z" fill="#ffffff" p-id="1877"></path><path d="M402.7 145.2m-60 0a60 60 0 1 0 120 0 60 60 0 1 0-120 0Z" fill="#ffffff" p-id="1878"></path><path d="M397.6 147.5m-60 0a60 60 0 1 0 120 0 60 60 0 1 0-120 0Z" fill="#ffffff" p-id="1879"></path><path d="M392.6 149.7m-60 0a60 60 0 1 0 120 0 60 60 0 1 0-120 0Z" fill="#ffffff" p-id="1880"></path><path d="M387.7 152.2m-60 0a60 60 0 1 0 120 0 60 60 0 1 0-120 0Z" fill="#ffffff" p-id="1881"></path><path d="M382.7 154.6m-60 0a60 60 0 1 0 120 0 60 60 0 1 0-120 0Z" fill="#ffffff" p-id="1882"></path><path d="M377.9 157.3m-60 0a60 60 0 1 0 120 0 60 60 0 1 0-120 0Z" fill="#ffffff" p-id="1883"></path><path d="M373.1 160m-60 0a60 60 0 1 0 120 0 60 60 0 1 0-120 0Z" fill="#ffffff" p-id="1884"></path><path d="M368.3 162.9m-60 0a60 60 0 1 0 120 0 60 60 0 1 0-120 0Z" fill="#ffffff" p-id="1885"></path><path d="M363.6 165.8m-60 0a60 60 0 1 0 120 0 60 60 0 1 0-120 0Z" fill="#ffffff" p-id="1886"></path><path d="M359.1 168.8m-60 0a60 60 0 1 0 120 0 60 60 0 1 0-120 0Z" fill="#ffffff" p-id="1887"></path><path d="M354.5 172m-60 0a60 60 0 1 0 120 0 60 60 0 1 0-120 0Z" fill="#ffffff" p-id="1888"></path><path d="M350.1 175.3m-60 0a60 60 0 1 0 120 0 60 60 0 1 0-120 0Z" fill="#ffffff" p-id="1889"></path><path d="M345.7 178.6m-60 0a60 60 0 1 0 120 0 60 60 0 1 0-120 0Z" fill="#ffffff" p-id="1890"></path><path d="M341.4 182.1m-60 0a60 60 0 1 0 120 0 60 60 0 1 0-120 0Z" fill="#ffffff" p-id="1891"></path><path d="M337.2 185.7m-60 0a60 60 0 1 0 120 0 60 60 0 1 0-120 0Z" fill="#ffffff" p-id="1892"></path><path d="M333.1 189.4m-60 0a60 60 0 1 0 120 0 60 60 0 1 0-120 0Z" fill="#ffffff" p-id="1893"></path><path d="M329.1 193.2m-60 0a60 60 0 1 0 120 0 60 60 0 1 0-120 0Z" fill="#ffffff" p-id="1894"></path><path d="M325.2 197.1m-60 0a60 60 0 1 0 120 0 60 60 0 1 0-120 0Z" fill="#ffffff" p-id="1895"></path><path d="M321.5 201.1m-60 0a60 60 0 1 0 120 0 60 60 0 1 0-120 0Z" fill="#ffffff" p-id="1896"></path><path d="M317.8 205.2m-60 0a60 60 0 1 0 120 0 60 60 0 1 0-120 0Z" fill="#ffffff" p-id="1897"></path><path d="M314.3 209.5m-60 0a60 60 0 1 0 120 0 60 60 0 1 0-120 0Z" fill="#ffffff" p-id="1898"></path><path d="M310.8 213.7m-60 0a60 60 0 1 0 120 0 60 60 0 1 0-120 0Z" fill="#ffffff" p-id="1899"></path><path d="M307.5 218.2m-60 0a60 60 0 1 0 120 0 60 60 0 1 0-120 0Z" fill="#ffffff" p-id="1900"></path><path d="M304.3 222.7m-60 0a60 60 0 1 0 120 0 60 60 0 1 0-120 0Z" fill="#ffffff" p-id="1901"></path><path d="M301.3 227.3m-60 0a60 60 0 1 0 120 0 60 60 0 1 0-120 0Z" fill="#ffffff" p-id="1902"></path><path d="M298.4 232m-60 0a60 60 0 1 0 120 0 60 60 0 1 0-120 0Z" fill="#ffffff" p-id="1903"></path><path d="M295.7 236.8m-60 0a60 60 0 1 0 120 0 60 60 0 1 0-120 0Z" fill="#ffffff" p-id="1904"></path><path d="M293.2 241.7m-60 0a60 60 0 1 0 120 0 60 60 0 1 0-120 0Z" fill="#ffffff" p-id="1905"></path><path d="M290.7 246.7m-60 0a60 60 0 1 0 120 0 60 60 0 1 0-120 0Z" fill="#ffffff" p-id="1906"></path><path d="M288.5 251.7m-60 0a60 60 0 1 0 120 0 60 60 0 1 0-120 0Z" fill="#ffffff" p-id="1907"></path><path d="M286.4 256.8m-60 0a60 60 0 1 0 120 0 60 60 0 1 0-120 0Z" fill="#ffffff" p-id="1908"></path><path d="M284.6 262m-60 0a60 60 0 1 0 120 0 60 60 0 1 0-120 0Z" fill="#ffffff" p-id="1909"></path><path d="M282.8 267.3m-60 0a60 60 0 1 0 120 0 60 60 0 1 0-120 0Z" fill="#ffffff" p-id="1910"></path><path d="M281.3 332.6c33 0 60-27 60-60s-27-60-60-60-60 27-60 60 27 60 60 60z" fill="#ffffff" p-id="1911"></path><path d="M278.4 285.3m-60 0a60 60 0 1 0 120 0 60 60 0 1 0-120 0Z" fill="#ffffff" p-id="1912"></path><path d="M276.7 298.3m-60 0a60 60 0 1 0 120 0 60 60 0 1 0-120 0Z" fill="#ffffff" p-id="1913"></path><path d="M276.1 311.4m-60 0a60 60 0 1 0 120 0 60 60 0 1 0-120 0Z" fill="#ffffff" p-id="1914"></path><path d="M276.1 324.5m-60 0a60 60 0 1 0 120 0 60 60 0 1 0-120 0Z" fill="#ffffff" p-id="1915"></path><path d="M276.9 337.5m-60 0a60 60 0 1 0 120 0 60 60 0 1 0-120 0Z" fill="#ffffff" p-id="1916"></path><path d="M278.5 350.5m-60 0a60 60 0 1 0 120 0 60 60 0 1 0-120 0Z" fill="#ffffff" p-id="1917"></path><path d="M281.2 363.3m-60 0a60 60 0 1 0 120 0 60 60 0 1 0-120 0Z" fill="#ffffff" p-id="1918"></path><path d="M284.4 376m-60 0a60 60 0 1 0 120 0 60 60 0 1 0-120 0Z" fill="#ffffff" p-id="1919"></path><path d="M289.4 388.1m-60 0a60 60 0 1 0 120 0 60 60 0 1 0-120 0Z" fill="#ffffff" p-id="1920"></path><path d="M295.1 399.8m-60 0a60 60 0 1 0 120 0 60 60 0 1 0-120 0Z" fill="#ffffff" p-id="1921"></path><path d="M301.9 411m-60 0a60 60 0 1 0 120 0 60 60 0 1 0-120 0Z" fill="#ffffff" p-id="1922"></path><path d="M310 421.3m-60 0a60 60 0 1 0 120 0 60 60 0 1 0-120 0Z" fill="#ffffff" p-id="1923"></path><path d="M318.7 431m-60 0a60 60 0 1 0 120 0 60 60 0 1 0-120 0Z" fill="#ffffff" p-id="1924"></path><path d="M328.3 440m-60 0a60 60 0 1 0 120 0 60 60 0 1 0-120 0Z" fill="#ffffff" p-id="1925"></path><path d="M338.7 447.9m-60 0a60 60 0 1 0 120 0 60 60 0 1 0-120 0Z" fill="#ffffff" p-id="1926"></path><path d="M349.5 455.3m-60 0a60 60 0 1 0 120 0 60 60 0 1 0-120 0Z" fill="#ffffff" p-id="1927"></path><path d="M360.7 462m-60 0a60 60 0 1 0 120 0 60 60 0 1 0-120 0Z" fill="#ffffff" p-id="1928"></path><path d="M372.4 468m-60 0a60 60 0 1 0 120 0 60 60 0 1 0-120 0Z" fill="#ffffff" p-id="1929"></path><path d="M384.2 473.6m-60 0a60 60 0 1 0 120 0 60 60 0 1 0-120 0Z" fill="#ffffff" p-id="1930"></path><path d="M396.4 478.5m-60 0a60 60 0 1 0 120 0 60 60 0 1 0-120 0Z" fill="#ffffff" p-id="1931"></path><path d="M408.6 483.1m-60 0a60 60 0 1 0 120 0 60 60 0 1 0-120 0Z" fill="#ffffff" p-id="1932"></path><path d="M421 487.4m-60 0a60 60 0 1 0 120 0 60 60 0 1 0-120 0Z" fill="#ffffff" p-id="1933"></path><path d="M433.5 491.3m-60 0a60 60 0 1 0 120 0 60 60 0 1 0-120 0Z" fill="#ffffff" p-id="1934"></path><path d="M446 495.1m-60 0a60 60 0 1 0 120 0 60 60 0 1 0-120 0Z" fill="#ffffff" p-id="1935"></path><path d="M458.6 498.5m-60 0a60 60 0 1 0 120 0 60 60 0 1 0-120 0Z" fill="#ffffff" p-id="1936"></path><path d="M471.3 501.9m-60 0a60 60 0 1 0 120 0 60 60 0 1 0-120 0Z" fill="#ffffff" p-id="1937"></path><path d="M484 505.1m-60 0a60 60 0 1 0 120 0 60 60 0 1 0-120 0Z" fill="#ffffff" p-id="1938"></path><path d="M496.7 508.3m-60 0a60 60 0 1 0 120 0 60 60 0 1 0-120 0Z" fill="#ffffff" p-id="1939"></path><path d="M509.4 511.4m-60 0a60 60 0 1 0 120 0 60 60 0 1 0-120 0Z" fill="#ffffff" p-id="1940"></path><path d="M522.1 514.5m-60 0a60 60 0 1 0 120 0 60 60 0 1 0-120 0Z" fill="#ffffff" p-id="1941"></path><path d="M534.9 517.6m-60 0a60 60 0 1 0 120 0 60 60 0 1 0-120 0Z" fill="#ffffff" p-id="1942"></path><path d="M547.6 520.8m-60 0a60 60 0 1 0 120 0 60 60 0 1 0-120 0Z" fill="#ffffff" p-id="1943"></path><path d="M560.2 524.1m-60 0a60 60 0 1 0 120 0 60 60 0 1 0-120 0Z" fill="#ffffff" p-id="1944"></path><path d="M572.9 527.5m-60 0a60 60 0 1 0 120 0 60 60 0 1 0-120 0Z" fill="#ffffff" p-id="1945"></path><path d="M585.5 531.2m-60 0a60 60 0 1 0 120 0 60 60 0 1 0-120 0Z" fill="#ffffff" p-id="1946"></path><path d="M598 535m-60 0a60 60 0 1 0 120 0 60 60 0 1 0-120 0Z" fill="#ffffff" p-id="1947"></path><path d="M610.4 539.2m-60 0a60 60 0 1 0 120 0 60 60 0 1 0-120 0Z" fill="#ffffff" p-id="1948"></path><path d="M622.7 543.5m-60 0a60 60 0 1 0 120 0 60 60 0 1 0-120 0Z" fill="#ffffff" p-id="1949"></path><path d="M634.9 548.4m-60 0a60 60 0 1 0 120 0 60 60 0 1 0-120 0Z" fill="#ffffff" p-id="1950"></path><path d="M646.8 553.7m-60 0a60 60 0 1 0 120 0 60 60 0 1 0-120 0Z" fill="#ffffff" p-id="1951"></path><path d="M658.6 559.5m-60 0a60 60 0 1 0 120 0 60 60 0 1 0-120 0Z" fill="#ffffff" p-id="1952"></path><path d="M670 566m-60 0a60 60 0 1 0 120 0 60 60 0 1 0-120 0Z" fill="#ffffff" p-id="1953"></path><path d="M681 572.9m-60 0a60 60 0 1 0 120 0 60 60 0 1 0-120 0Z" fill="#ffffff" p-id="1954"></path><path d="M691.6 580.7m-60 0a60 60 0 1 0 120 0 60 60 0 1 0-120 0Z" fill="#ffffff" p-id="1955"></path><path d="M701.4 589.4m-60 0a60 60 0 1 0 120 0 60 60 0 1 0-120 0Z" fill="#ffffff" p-id="1956"></path><path d="M710.7 598.6m-60 0a60 60 0 1 0 120 0 60 60 0 1 0-120 0Z" fill="#ffffff" p-id="1957"></path><path d="M719 608.7m-60 0a60 60 0 1 0 120 0 60 60 0 1 0-120 0Z" fill="#ffffff" p-id="1958"></path><path d="M726.1 619.6m-60 0a60 60 0 1 0 120 0 60 60 0 1 0-120 0Z" fill="#ffffff" p-id="1959"></path><path d="M732.5 631m-60 0a60 60 0 1 0 120 0 60 60 0 1 0-120 0Z" fill="#ffffff" p-id="1960"></path><path d="M737.6 643.1m-60 0a60 60 0 1 0 120 0 60 60 0 1 0-120 0Z" fill="#ffffff" p-id="1961"></path><path d="M741.5 655.6m-60 0a60 60 0 1 0 120 0 60 60 0 1 0-120 0Z" fill="#ffffff" p-id="1962"></path><path d="M744.8 668.2m-60 0a60 60 0 1 0 120 0 60 60 0 1 0-120 0Z" fill="#ffffff" p-id="1963"></path><path d="M746.5 681.2m-60 0a60 60 0 1 0 120 0 60 60 0 1 0-120 0Z" fill="#ffffff" p-id="1964"></path><path d="M747.9 694.2m-60 0a60 60 0 1 0 120 0 60 60 0 1 0-120 0Z" fill="#ffffff" p-id="1965"></path><path d="M747.9 707.3m-60 0a60 60 0 1 0 120 0 60 60 0 1 0-120 0Z" fill="#ffffff" p-id="1966"></path><path d="M747.8 720.4m-60 0a60 60 0 1 0 120 0 60 60 0 1 0-120 0Z" fill="#ffffff" p-id="1967"></path><path d="M746.4 733.4m-60 0a60 60 0 1 0 120 0 60 60 0 1 0-120 0Z" fill="#ffffff" p-id="1968"></path><path d="M744 746.3m-60 0a60 60 0 1 0 120 0 60 60 0 1 0-120 0Z" fill="#ffffff" p-id="1969"></path><path d="M740.5 758.9m-60 0a60 60 0 1 0 120 0 60 60 0 1 0-120 0Z" fill="#ffffff" p-id="1970"></path><path d="M735.9 771.2m-60 0a60 60 0 1 0 120 0 60 60 0 1 0-120 0Z" fill="#ffffff" p-id="1971"></path><path d="M730.5 783.1m-60 0a60 60 0 1 0 120 0 60 60 0 1 0-120 0Z" fill="#ffffff" p-id="1972"></path><path d="M724.1 794.5m-60 0a60 60 0 1 0 120 0 60 60 0 1 0-120 0Z" fill="#ffffff" p-id="1973"></path><path d="M716.8 805.4m-60 0a60 60 0 1 0 120 0 60 60 0 1 0-120 0Z" fill="#ffffff" p-id="1974"></path><path d="M708.8 815.7m-60 0a60 60 0 1 0 120 0 60 60 0 1 0-120 0Z" fill="#ffffff" p-id="1975"></path><path d="M700.1 825.6m-60 0a60 60 0 1 0 120 0 60 60 0 1 0-120 0Z" fill="#ffffff" p-id="1976"></path><path d="M690.8 834.7m-60 0a60 60 0 1 0 120 0 60 60 0 1 0-120 0Z" fill="#ffffff" p-id="1977"></path><path d="M680.9 843.3m-60 0a60 60 0 1 0 120 0 60 60 0 1 0-120 0Z" fill="#ffffff" p-id="1978"></path><path d="M670.5 851.3m-60 0a60 60 0 1 0 120 0 60 60 0 1 0-120 0Z" fill="#ffffff" p-id="1979"></path><path d="M659.7 858.7m-60 0a60 60 0 1 0 120 0 60 60 0 1 0-120 0Z" fill="#ffffff" p-id="1980"></path><path d="M648.5 865.4m-60 0a60 60 0 1 0 120 0 60 60 0 1 0-120 0Z" fill="#ffffff" p-id="1981"></path><path d="M636.9 871.6m-60 0a60 60 0 1 0 120 0 60 60 0 1 0-120 0Z" fill="#ffffff" p-id="1982"></path><path d="M625.1 877.1m-60 0a60 60 0 1 0 120 0 60 60 0 1 0-120 0Z" fill="#ffffff" p-id="1983"></path><path d="M613 882.1m-60 0a60 60 0 1 0 120 0 60 60 0 1 0-120 0Z" fill="#ffffff" p-id="1984"></path><path d="M600.6 886.5m-60 0a60 60 0 1 0 120 0 60 60 0 1 0-120 0Z" fill="#ffffff" p-id="1985"></path><path d="M588.1 890.3m-60 0a60 60 0 1 0 120 0 60 60 0 1 0-120 0Z" fill="#ffffff" p-id="1986"></path><path d="M575.4 893.4m-60 0a60 60 0 1 0 120 0 60 60 0 1 0-120 0Z" fill="#ffffff" p-id="1987"></path><path d="M562.6 896m-60 0a60 60 0 1 0 120 0 60 60 0 1 0-120 0Z" fill="#ffffff" p-id="1988"></path><path d="M549.6 898.1m-60 0a60 60 0 1 0 120 0 60 60 0 1 0-120 0Z" fill="#ffffff" p-id="1989"></path><path d="M536.6 899.6m-60 0a60 60 0 1 0 120 0 60 60 0 1 0-120 0Z" fill="#ffffff" p-id="1990"></path><path d="M523.6 900.5m-60 0a60 60 0 1 0 120 0 60 60 0 1 0-120 0Z" fill="#ffffff" p-id="1991"></path><path d="M510.5 900.8m-60 0a60 60 0 1 0 120 0 60 60 0 1 0-120 0Z" fill="#ffffff" p-id="1992"></path><path d="M497.4 900.7m-60 0a60 60 0 1 0 120 0 60 60 0 1 0-120 0Z" fill="#ffffff" p-id="1993"></path><path d="M484.3 900m-60 0a60 60 0 1 0 120 0 60 60 0 1 0-120 0Z" fill="#ffffff" p-id="1994"></path><path d="M471.3 898.7m-60 0a60 60 0 1 0 120 0 60 60 0 1 0-120 0Z" fill="#ffffff" p-id="1995"></path><path d="M458.3 896.9m-60 0a60 60 0 1 0 120 0 60 60 0 1 0-120 0Z" fill="#ffffff" p-id="1996"></path><path d="M445.4 894.5m-60 0a60 60 0 1 0 120 0 60 60 0 1 0-120 0Z" fill="#ffffff" p-id="1997"></path><path d="M432.7 891.6m-60 0a60 60 0 1 0 120 0 60 60 0 1 0-120 0Z" fill="#ffffff" p-id="1998"></path><path d="M420 888.2m-60 0a60 60 0 1 0 120 0 60 60 0 1 0-120 0Z" fill="#ffffff" p-id="1999"></path><path d="M407.6 884.1m-60 0a60 60 0 1 0 120 0 60 60 0 1 0-120 0Z" fill="#ffffff" p-id="2000"></path><path d="M395.3 879.5m-60 0a60 60 0 1 0 120 0 60 60 0 1 0-120 0Z" fill="#ffffff" p-id="2001"></path><path d="M383.3 874.4m-60 0a60 60 0 1 0 120 0 60 60 0 1 0-120 0Z" fill="#ffffff" p-id="2002"></path><path d="M371.5 868.7m-60 0a60 60 0 1 0 120 0 60 60 0 1 0-120 0Z" fill="#ffffff" p-id="2003"></path><path d="M360 862.4m-60 0a60 60 0 1 0 120 0 60 60 0 1 0-120 0Z" fill="#ffffff" p-id="2004"></path><path d="M348.8 855.6m-60 0a60 60 0 1 0 120 0 60 60 0 1 0-120 0Z" fill="#ffffff" p-id="2005"></path><path d="M338 848.2m-60 0a60 60 0 1 0 120 0 60 60 0 1 0-120 0Z" fill="#ffffff" p-id="2006"></path><path d="M327.6 840.2m-60 0a60 60 0 1 0 120 0 60 60 0 1 0-120 0Z" fill="#ffffff" p-id="2007"></path><path d="M317.7 831.7m-60 0a60 60 0 1 0 120 0 60 60 0 1 0-120 0Z" fill="#ffffff" p-id="2008"></path><path d="M308.3 822.6m-60 0a60 60 0 1 0 120 0 60 60 0 1 0-120 0Z" fill="#ffffff" p-id="2009"></path><path d="M299.5 812.9m-60 0a60 60 0 1 0 120 0 60 60 0 1 0-120 0Z" fill="#ffffff" p-id="2010"></path><path d="M291.3 802.7m-60 0a60 60 0 1 0 120 0 60 60 0 1 0-120 0Z" fill="#ffffff" p-id="2011"></path><path d="M283.9 852.3c33 0 60-27 60-60s-27-60-60-60-60 27-60 60c0 33.1 27 60 60 60z" fill="#ffffff" p-id="2012"></path></svg>